<svg xmlns="http://www.w3.org/2000/svg" width="63" height="68"><path fill-rule="evenodd" fill="#12387b" d="M48.000,68.000 C39.716,68.000 33.000,61.284 33.000,53.000 C33.000,44.716 39.716,38.000 48.000,38.000 C56.284,38.000 63.000,44.716 63.000,53.000 C63.000,61.284 56.284,68.000 48.000,68.000 ZM48.000,40.000 C40.820,40.000 35.000,45.820 35.000,53.000 C35.000,60.180 40.820,66.000 48.000,66.000 C55.180,66.000 61.000,60.180 61.000,53.000 C61.000,45.820 55.180,40.000 48.000,40.000 ZM58.000,54.000 C57.448,54.000 57.000,53.552 57.000,53.000 C57.000,52.448 57.448,52.000 58.000,52.000 C58.552,52.000 59.000,52.448 59.000,53.000 C59.000,53.552 58.552,54.000 58.000,54.000 ZM54.364,60.778 C53.973,60.387 53.973,59.754 54.364,59.364 C54.754,58.973 55.388,58.973 55.778,59.364 C56.169,59.754 56.169,60.387 55.778,60.778 C55.388,61.168 54.754,61.168 54.364,60.778 ZM54.364,46.636 C53.973,46.245 53.973,45.612 54.364,45.222 C54.754,44.831 55.388,44.831 55.778,45.222 C56.169,45.612 56.169,46.245 55.778,46.636 C55.388,47.026 54.754,47.026 54.364,46.636 ZM48.000,55.000 C47.262,55.000 46.624,54.595 46.277,54.000 L43.000,54.000 C42.448,54.000 42.000,53.552 42.000,53.000 C42.000,52.448 42.448,52.000 43.000,52.000 L46.273,52.000 C46.449,51.701 46.700,51.452 47.000,51.277 L47.000,45.000 C47.000,44.448 47.448,44.000 48.000,44.000 C48.552,44.000 49.000,44.448 49.000,45.000 L49.000,51.277 C49.595,51.624 50.000,52.262 50.000,53.000 C50.000,54.104 49.105,55.000 48.000,55.000 ZM47.000,43.000 C47.000,42.448 47.448,42.000 48.000,42.000 C48.552,42.000 49.000,42.448 49.000,43.000 C49.000,43.552 48.552,44.000 48.000,44.000 C47.448,44.000 47.000,43.552 47.000,43.000 ZM40.222,60.778 C39.831,60.387 39.831,59.754 40.222,59.364 C40.612,58.973 41.245,58.973 41.636,59.364 C42.027,59.754 42.027,60.387 41.636,60.778 C41.245,61.168 40.612,61.168 40.222,60.778 ZM40.222,46.636 C39.831,46.245 39.831,45.612 40.222,45.222 C40.612,44.831 41.245,44.831 41.636,45.222 C42.027,45.612 42.027,46.245 41.636,46.636 C41.245,47.026 40.612,47.026 40.222,46.636 ZM38.000,54.000 C37.448,54.000 37.000,53.552 37.000,53.000 C37.000,52.448 37.448,52.000 38.000,52.000 C38.552,52.000 39.000,52.448 39.000,53.000 C39.000,53.552 38.552,54.000 38.000,54.000 ZM48.000,62.000 C48.552,62.000 49.000,62.448 49.000,63.000 C49.000,63.552 48.552,64.000 48.000,64.000 C47.448,64.000 47.000,63.552 47.000,63.000 C47.000,62.448 47.448,62.000 48.000,62.000 ZM39.105,34.065 C39.652,34.133 40.040,34.634 39.971,35.183 L39.890,35.837 C39.143,36.191 38.420,36.586 37.730,37.030 L37.991,34.934 C38.059,34.385 38.563,34.002 39.105,34.065 ZM8.014,17.242 C7.913,17.711 7.498,18.030 7.040,18.030 C6.970,18.030 6.897,18.023 6.826,18.007 C6.288,17.889 5.946,17.355 6.065,16.815 C6.079,16.746 7.701,9.946 16.034,10.018 C16.585,10.024 17.028,10.477 17.022,11.030 C17.016,11.581 16.547,11.983 16.013,12.020 C9.223,11.905 8.026,17.190 8.014,17.242 ZM20.015,44.074 C19.519,44.074 19.088,43.703 19.025,43.196 L18.027,35.183 C17.958,34.634 18.347,34.133 18.894,34.065 C19.435,34.002 19.939,34.385 20.008,34.934 L21.006,42.947 C21.075,43.497 20.686,43.997 20.139,44.065 C20.098,44.071 20.057,44.074 20.015,44.074 ZM47.354,32.642 C46.426,32.873 45.650,33.457 45.160,34.235 C44.353,34.356 43.562,34.521 42.792,34.740 C43.311,32.772 44.862,31.200 46.875,30.697 C52.265,29.351 55.997,24.511 55.950,18.927 C55.899,12.960 51.398,7.880 45.480,7.112 C43.664,6.876 41.845,7.066 40.074,7.677 L39.352,7.926 L38.922,7.291 C36.687,3.982 32.978,2.004 28.999,2.004 C25.021,2.004 21.311,3.982 19.076,7.290 L18.647,7.925 L17.924,7.676 C16.645,7.234 15.339,7.012 14.029,7.012 C13.525,7.012 13.021,7.046 12.518,7.111 C6.600,7.880 2.099,12.960 2.048,18.927 C2.001,24.510 5.734,29.350 11.124,30.697 C13.437,31.275 15.144,33.263 15.370,35.645 L16.336,45.824 C20.333,47.978 24.589,49.081 28.999,49.081 C29.138,49.081 29.274,49.070 29.412,49.068 C29.273,49.728 29.165,50.399 29.097,51.082 C29.064,51.082 29.031,51.085 28.998,51.085 C24.683,51.085 20.509,50.115 16.561,48.200 L16.685,49.501 C16.774,50.436 18.657,51.642 19.902,52.163 C22.809,53.392 25.931,54.001 29.050,53.994 C29.085,54.668 29.154,55.332 29.257,55.985 C29.171,55.986 29.085,55.998 28.999,55.998 C25.633,55.998 22.268,55.336 19.131,54.011 C19.044,53.975 18.914,53.919 18.751,53.843 C17.611,53.315 14.900,51.839 14.696,49.690 L14.218,44.652 L14.219,44.652 L13.383,35.835 C13.237,34.297 12.135,33.014 10.642,32.642 C4.352,31.071 -0.002,25.424 0.053,18.910 C0.112,11.948 5.360,6.021 12.262,5.124 C14.142,4.880 16.021,5.026 17.860,5.556 C20.498,2.065 24.608,0.001 28.999,0.001 C33.390,0.001 37.501,2.064 40.139,5.556 C41.978,5.025 43.856,4.879 45.737,5.124 C52.638,6.021 57.887,11.948 57.947,18.910 C58.002,25.424 53.647,31.070 47.354,32.642 ZM27.003,37.062 L27.003,45.075 C27.003,45.629 26.556,46.077 26.005,46.077 C25.454,46.077 25.007,45.629 25.007,45.075 L25.007,37.062 C25.007,36.508 25.454,36.060 26.005,36.060 C26.556,36.060 27.003,36.508 27.003,37.062 ZM23.219,7.625 C22.881,7.187 22.962,6.558 23.398,6.220 C25.239,4.795 29.941,2.953 34.563,6.191 C35.015,6.508 35.125,7.133 34.810,7.586 C34.615,7.865 34.306,8.014 33.990,8.014 C33.793,8.014 33.593,7.955 33.419,7.833 C28.834,4.619 24.660,7.773 24.619,7.806 C24.183,8.142 23.555,8.063 23.219,7.625 ZM31.994,36.060 C32.545,36.060 32.992,36.508 32.992,37.062 L32.992,41.378 C32.226,42.366 31.558,43.431 30.996,44.561 L30.996,37.062 C30.996,36.508 31.443,36.060 31.994,36.060 Z"/></svg>