<svg xmlns="http://www.w3.org/2000/svg" width="73.6" height="18.8" viewBox="2.3 6.5 73.6 18.8"><path fill="#FFF" d="M10.7 18.7c-.3.3-.8.4-1.1.4-.6.1-1.3-.1-1.7-.6-.3-.4-.5-.9-.8-1.3-.5-.7-1.3-1.1-2.2-.9-1.7.3-2.4 2.3-1.5 3.6 1.4 1.9 4.4 1.6 6 .3.5-.5.9-1 1.3-1.5M67.4 18.7c.3.3.8.4 1.1.4.6.1 1.3-.1 1.7-.6.3-.4.5-.9.8-1.3.5-.7 1.3-1.1 2.2-.9 1.7.3 2.4 2.3 1.5 3.6-1.4 1.9-4.4 1.6-6 .3-.4-.5-.9-1-1.3-1.5M61.9 8.3h-4.1c-.4 0-.8.4-.8.8s.4.9.8.9h4.1c.4 0 .8-.4.8-.8s-.4-.8-.8-.9M36.4 17c-.1-.2-.1-.5-.1-.7v-1.2c0-1.5.3-4.1-1.7-4.1-1.4 0-2.2 1.1-2.4 1.5 0-1-.9-1.8-2.1-1.8-.8 0-1.3.6-1.3.6s.8.3.8 1.3V17c0 .6.5 1.3 1.3 1.3s1.3-.6 1.3-1.3v-3.2c.1-.5.4-1.1.9-1.1.6 0 .6.6.6.6v3.4c0 .2.1.3.1.5.3.6 1 1 1.9 1 .8 0 1.3-.6 1.3-.6s-.4 0-.6-.6M55.7 17c-.1-.2-.1-.5-.1-.7V8.5c0-.8-.6-1.4-1.4-1.4s-1.4.6-1.4 1.4v6.9c0 .6-.1 1.3.2 1.8.3.6 1.1 1.1 2 1.1.8 0 1.3-.6 1.3-.6s-.4-.1-.6-.7M25.2 16.8c-.7 0-1.1-.8-1.1-2.1s.4-2.1 1.1-2.1c.6 0 1.1.8 1.1 2.1-.1 1.3-.4 2.1-1.1 2.1m0-5.8c-2 0-3.7 1.7-3.7 3.7 0 2.1 1.7 3.7 3.7 3.7s3.7-1.7 3.7-3.7c0-2.1-1.7-3.7-3.7-3.7"/><path fill="#FFF" d="M40.7 16.6c-.7 0-1.1-.7-1.1-1.9 0-1.1.4-1.8 1.1-1.9.6 0 1.1.7 1.1 1.9-.1 1.2-.4 1.9-1.1 1.9m4 .4c-.1-.2-.1-.5-.1-.7V8.5c0-.8-.6-1.4-1.4-1.4-.8 0-1.4.6-1.4 1.4v3.7c-.3-.5-1.1-1.2-2.2-1.2-3.1 0-3.3 5.6-1.2 7 .6.4 1.5.5 2.2.3.5-.1 1.2-.6 1.4-1.2 0 0 0 .1.1.1.3.6 1.1 1.1 2 1.1.8 0 1.3-.6 1.3-.6s-.4-.1-.7-.7M47.9 14.3c.1-.6.2-1.3.7-1.7.4-.3 1 0 1.1.6 0 .6-.4 1-.9 1.1h-.9m4 1.8s-.4.5-2 .5-1.9-1.2-1.9-1.2c2.3 0 4.2-.1 4.2-2 0-1.8-2.1-2.4-3.3-2.4-2 0-3.5 1.6-3.5 3.8 0 2.4 1.9 3.6 3.5 3.6 2.8 0 3-2.3 3-2.3M58.8 14.3c.1-.6.2-1.3.7-1.7.4-.3 1 0 1.1.6 0 .6-.4 1-.9 1.1h-.9m4 1.8s-.4.5-2 .5-1.9-1.2-1.9-1.2c2.3 0 4.2-.1 4.2-2 0-1.8-2.1-2.4-3.3-2.4-2 0-3.5 1.6-3.5 3.8 0 2.4 1.9 3.6 3.5 3.6 2.8 0 3-2.3 3-2.3M67.9 16.3h-1.6c.1 0 1.3-1 1.6-1.3 1-.8 2.8-2.1 2.3-3.7-.1-.4-.4-.6-.4-.6s-.1.3-.5.4c-.2 0-.3.1-.5.1h-4.3c-.6 0-1.1.5-1.1 1s.4 1 1 1h2.5c-1.1.6-2.5 1.4-3.2 2.5-.4.7-.8 1.7-.7 2.5.5-.5 2-1 3.1-.7.4.1.8.3 1.2.5 2.1 1.3 3.3-1.2 2.3-2.3.2 0-.4.6-1.7.6M21.6 17.9c-1.3-1.4-1.7-3.7-1.7-5.2-.1-1.3 0-3.6 1-4.3-.3-.4-1-.6-1.6-.6-1.2 0-1.7.8-2.1 1.3-.1.2-2.1 2.9-2.1 2.9s-1.7-2.6-1.9-2.9c-.3-.4-.8-1.2-1.7-1.3-.4-.1-1.4-.1-2 .7 1 .8.9 2.8.7 4.1C9.7 16.6 8 17 8 17c.9 2.4 3.2 1.4 3.8-.5.4-1.2.7-2.8.7-4.1l2.5 3.8 2.8-3.8c-.5 6.7 1.9 8.7 3.9 8.7s2.7-1.9 2.7-1.9c-1.1 0-2-.6-2.8-1.3M28 20v3.9c0 .3.3.5.6.6.3 0 .6-.2.6-.6v-3.2c0-.3 0-.5-.1-.8-.1-.3-.5-.5-.9-.5-.3 0-.5.3-.5.3s.2.1.3.3M65 23.9v-.3V20c0-.3-.3-.5-.6-.5s-.6.2-.6.5v3.2c0 .3 0 .5.1.8.1.3.5.5.9.5.3 0 .5-.3.5-.3s-.2-.1-.3-.3M43.9 21.3c-.6 0-1 .5-1.1.7v-.3c0-.3-.3-.5-.6-.5s-.6.2-.6.5V24c0 .3.3.5.6.6.3 0 .6-.2.6-.6v-1.4c.1-.2.2-.5.4-.5.3 0 .3.3.3.3v1.5c0 .3.3.5.6.6.3 0 .6-.2.6-.6v-.8c-.1-.8 0-1.8-.8-1.8M58.8 21.3c-.6 0-1 .5-1.1.7v-.3c0-.3-.3-.5-.6-.5s-.6.2-.6.5V24c0 .3.3.5.6.6.3 0 .6-.2.6-.6v-1.4c0-.2.2-.5.4-.5.3 0 .3.3.3.3v1.5c0 .3.3.5.6.6.3 0 .6-.2.6-.6v-.8c-.1-.8 0-1.8-.8-1.8M32 21.3c-.6 0-1 .5-1.1.7v-.3c0-.3-.3-.5-.6-.5s-.6.2-.6.5V24c0 .3.3.5.6.6.3 0 .6-.2.6-.6v-1.4c.1-.2.2-.5.4-.5.3 0 .3.3.3.3v1.5c0 .3.3.5.6.6.3 0 .6-.2.6-.6v-.8c0-.8.1-1.8-.8-1.8M54.6 23.8c-.3 0-.5-.4-.5-1s.2-1 .5-1 .5.4.5 1c-.1.6-.2.9-.5 1m0-2.7c-.9 0-1.7.7-1.7 1.7 0 .9.7 1.7 1.7 1.7s1.7-.7 1.7-1.7c-.1-.9-.8-1.7-1.7-1.7"/><path fill="#FFF" d="M46.6 23.6c-.3 0-.5-.3-.5-.8s.2-.8.5-.8.5.3.5.8c-.1.5-.2.8-.5.8m1.7-2c0-.3-.3-.6-.6-.6s-.6.3-.6.6v.1c-.1-.2-.5-.6-1-.6-1.4 0-1.5 2.5-.5 3.1.3.2.7.2 1 .1.2 0 .4-.2.6-.4.1.2.3.4.6.4s.6-.3.6-.6c-.1.1-.1-2.1-.1-2.1M61.5 23.6c-.3 0-.5-.3-.5-.8s.2-.8.5-.8.5.3.5.8c-.1.5-.2.8-.5.8m1.8-2c0-.3-.3-.6-.6-.6s-.6.3-.6.6v.1c-.1-.2-.5-.6-1-.6-1.4 0-1.5 2.5-.5 3.1.3.2.7.2 1 .1.2 0 .4-.2.6-.4.1.2.3.4.6.4s.6-.3.6-.6c-.1.1-.1-2.1-.1-2.1M52.5 21.9c0-.3-.2-.5-.5-.5s-.6.2-.6.5v2c0 .3.2.5.5.5s.6-.2.6-.5V23v-1.1M52.5 20.5c0 .3-.3.6-.6.6s-.6-.3-.6-.6.3-.6.6-.6c.4 0 .6.2.6.6M40.7 21.2c-.3 0-.5.3-.8.6v-.2c0-.3-.3-.5-.6-.6-.3 0-.6.2-.6.6v2.2c0 .3.3.5.6.6.3 0 .6-.2.6-.5v-1.4c0-.2.1-.5.3-.5.2 0 0 .6.5.6.8 0 .9-1.4 0-1.4M36.5 22.6c0-.3.1-.6.3-.7.2-.1.5 0 .5.3s-.2.4-.4.5c0-.1-.4-.1-.4-.1m1.8.8s-.2.2-.9.2-.8-.5-.8-.5c1 0 1.9-.1 1.9-.9s-.9-1.1-1.5-1.1c-.9 0-1.6.7-1.6 1.7 0 1.1.9 1.6 1.6 1.6 1.3.1 1.3-1 1.3-1M35.3 23.8s-.3.6-.9.6c-.5 0-1-.4-1.1-1v-1.6h-.2c-.1 0-.2 0-.2-.3 0-.2.2-.3.2-.3h.1v-.4c0-.3.3-.6.6-.5.3 0 .6.3.6.5v.4h.5c.1 0 .2 0 .2.3s-.2.3-.2.3h-.5v1.3c.2.5.5.7.9.7M50.9 23.8s-.3.6-.9.6c-.5 0-1-.4-1.1-1v-1.6h-.2c-.1 0-.2 0-.2-.3 0-.2.2-.3.2-.3h.3v-.4c0-.3.3-.6.6-.5.3 0 .6.3.6.5v.4h.5c.1 0 .2 0 .2.3s-.2.3-.2.3h-.5v1.3c0 .5.4.7.7.7"/></svg>